<svg width="18" height="18" viewBox="0 0 18 18" fill="none" xmlns="http://www.w3.org/2000/svg">
<path fill-rule="evenodd" clip-rule="evenodd" d="M8.95227 0.0415041H9.0479C10.9716 0.0414934 12.4791 0.0414849 13.6553 0.199626C14.8593 0.361493 15.8093 0.699276 16.555 1.44495C17.3006 2.19063 17.6384 3.14065 17.8003 4.34459C17.9584 5.52083 17.9584 7.02836 17.9584 8.95203V9.04765C17.9584 10.9713 17.9584 12.4788 17.8003 13.6551C17.6384 14.859 17.3006 15.809 16.555 16.5547C15.8093 17.3004 14.8593 17.6382 13.6553 17.8C12.4791 17.9582 10.9716 17.9582 9.04789 17.9582H8.95227C7.02861 17.9582 5.52108 17.9582 4.34484 17.8C3.14089 17.6382 2.19087 17.3004 1.4452 16.5547C0.69952 15.809 0.361737 14.859 0.19987 13.6551C0.041729 12.4788 0.0417375 10.9713 0.0417482 9.04765V8.95202C0.0417375 7.02836 0.041729 5.52083 0.19987 4.34459C0.361737 3.14065 0.69952 2.19063 1.4452 1.44495C2.19087 0.699276 3.14089 0.361493 4.34484 0.199626C5.52107 0.0414849 7.0286 0.0414934 8.95227 0.0415041ZM4.5114 1.43848C3.44606 1.58171 2.80379 1.85412 2.32908 2.32883C1.85436 2.80355 1.58195 3.44582 1.43872 4.51115C1.4161 4.67945 1.39695 4.85596 1.38076 5.0415H4.49032L6.8704 1.30138C5.93084 1.3158 5.16012 1.35126 4.5114 1.43848ZM8.33939 1.29177C8.3239 1.33541 8.30329 1.37799 8.27737 1.41872L5.97196 5.0415H9.90699L12.2658 1.33476C11.3798 1.29209 10.3123 1.2915 9.00008 1.2915C8.7726 1.2915 8.55248 1.29152 8.33939 1.29177ZM13.6652 1.46399L11.3886 5.0415H16.6194C16.6032 4.85596 16.5841 4.67945 16.5614 4.51115C16.4182 3.44582 16.1458 2.80355 15.6711 2.32883C15.2232 1.88092 14.6261 1.61312 13.6652 1.46399ZM16.6861 6.2915H10.2594C10.2528 6.29161 10.2462 6.29161 10.2396 6.2915H4.84276C4.83614 6.29161 4.82952 6.29161 4.82289 6.2915H1.31402C1.29212 7.05961 1.29175 7.95163 1.29175 8.99984C1.29175 10.9817 1.29308 12.4052 1.43872 13.4885C1.58195 14.5539 1.85436 15.1961 2.32908 15.6708C2.80379 16.1456 3.44606 16.418 4.5114 16.5612C5.59471 16.7068 7.01823 16.7082 9.00008 16.7082C10.9819 16.7082 12.4055 16.7068 13.4888 16.5612C14.5541 16.418 15.1964 16.1456 15.6711 15.6708C16.1458 15.1961 16.4182 14.5539 16.5614 13.4885C16.7071 12.4052 16.7084 10.9817 16.7084 8.99984C16.7084 7.95163 16.708 7.05961 16.6861 6.2915ZM10.1403 8.9342L10.225 8.98884C10.7415 9.32204 11.1887 9.61054 11.5004 9.88621C11.832 10.1795 12.1251 10.557 12.1251 11.0832C12.1251 11.6093 11.832 11.9869 11.5004 12.2801C11.1887 12.5558 10.7415 12.8443 10.225 13.1775L10.1403 13.2321C9.6185 13.5689 9.16502 13.8615 8.78833 14.0288C8.3964 14.2028 7.89422 14.3282 7.41527 14.0239C6.96138 13.7355 6.82376 13.2434 6.76602 12.81C6.70836 12.3774 6.70838 11.806 6.70841 11.129V11.0374C6.70838 10.3604 6.70836 9.78897 6.76602 9.35631C6.82376 8.92298 6.96138 8.4308 7.41527 8.14245C7.89422 7.83817 8.3964 7.96355 8.78833 8.13757C9.16502 8.30482 9.6185 8.59747 10.1403 8.9342ZM8.04835 9.20958C8.04784 9.20891 8.05173 9.20787 8.06154 9.20847C8.05375 9.21055 8.04885 9.21025 8.04835 9.20958ZM8.081 9.21087C8.11447 9.21657 8.17665 9.23365 8.28107 9.28002C8.55739 9.40271 8.92794 9.63958 9.5062 10.0127C10.0757 10.3801 10.4405 10.6176 10.6723 10.8226C10.8856 11.0113 10.8759 11.0775 10.8751 11.0828C10.8759 11.0882 10.8856 11.1551 10.6723 11.3438C10.4405 11.5487 10.0757 11.7862 9.5062 12.1537C8.92794 12.5268 8.55739 12.7636 8.28107 12.8863C8.17665 12.9327 8.11446 12.9498 8.081 12.9555C8.06249 12.9198 8.03021 12.8337 8.00506 12.6449C7.95976 12.305 7.95841 11.8183 7.95841 11.0832C7.95841 10.3481 7.95976 9.86135 8.00506 9.52142C8.03021 9.33269 8.06249 9.24651 8.081 9.21087ZM8.04835 12.9568C8.04886 12.9561 8.05376 12.9558 8.06154 12.9579C8.05172 12.9585 8.04783 12.9574 8.04835 12.9568ZM8.09181 12.9733C8.09467 12.9757 8.09591 12.9774 8.09582 12.9776C8.09573 12.9778 8.0943 12.9766 8.09181 12.9733ZM8.09181 9.19301C8.0943 9.18969 8.09573 9.18849 8.09582 9.18872C8.09591 9.18896 8.09467 9.19061 8.09181 9.19301Z" fill="#877EFF"/>
</svg>
